# xmcd
#
# Track frame offsets: 
#        150
#        15855
#        34146
#        56654
#        78034
#        109546
#        142346
#        157410
#        186029
#        203598
#        220936
#        267458
#
# Disc length: 3753 seconds
#
# Revision: 0
# Processed by: cddbd v1.5.2PL0 Copyright (c) Steve Scherf et al.
# Submitted via: ExactAudioCopy v0.95b4
#
DISCID=a50ea70c
DTITLE=Barry White - Let the Music Play
DYEAR=2004
DGENRE=Blues
TTITLE0=Let The Music Play
TTITLE1=Can't Get Enough Of Your Love, Babe
TTITLE2=I Love You More Than Anything (In This World Girl)
TTITLE3=Love Serenade (Part I)
TTITLE4=Hard To Believe That I Found You
TTITLE5=September When I First Met You
TTITLE6=Don't Make Me Wait Too Long
TTITLE7=Look At Her
TTITLE8=I'm Gonna Love You Just A Little Bit More, Baby
TTITLE9=Oh Love, Well We Finally Made It
TTITLE10=Let Me Live My Life Lovin' You Babe
TTITLE11=Love Serenade (Part II)
EXTD=
EXTT0=
EXTT1=
EXTT2=
EXTT3=
EXTT4=
EXTT5=
EXTT6=
EXTT7=
EXTT8=
EXTT9=
EXTT10=
EXTT11=
PLAYORDER=
